<svg xmlns="http://www.w3.org/2000/svg" width="128" height="128" viewBox="0 0 128 128">
  <defs>
    <linearGradient id="bg" x1="0" y1="0" x2="1" y2="1">
      <stop offset="0" stop-color="#1b1f3a"/><stop offset="1" stop-color="#3a1d5c"/>
    </linearGradient>
    <linearGradient id="ring" x1="0" y1="0" x2="1" y2="1">
      <stop offset="0" stop-color="#ff4d6d"/><stop offset="1" stop-color="#ff9e3d"/>
    </linearGradient>
  </defs>
  <rect x="8" y="8" width="112" height="112" rx="26" fill="url(#bg)"/>
  <circle cx="64" cy="64" r="38" fill="none" stroke="#ffffff" stroke-opacity=".12" stroke-width="9"/>
  <path d="M64 26a38 38 0 1 1-36.1 26.2" fill="none" stroke="url(#ring)" stroke-width="9" stroke-linecap="round"/>
  <g transform="translate(64 64)" fill="#fff">
    <circle r="6"/>
    <path d="M-4-7c-3-12 1-22 10-22 9 0 10 10 3 16-3 3-7 4-9 5z"/>
    <path d="M-4-7c-3-12 1-22 10-22 9 0 10 10 3 16-3 3-7 4-9 5z" transform="rotate(120)"/>
    <path d="M-4-7c-3-12 1-22 10-22 9 0 10 10 3 16-3 3-7 4-9 5z" transform="rotate(240)"/>
  </g>
</svg>
